# xmcd
#
# Track frame offsets: 
#        150
#        9790
#        22140
#        35970
#        47647
#        60167
#        75710
#        86507
#        96910
#        106855
#
# Disc length: 1578 seconds
#
# Revision: 3
# Processed by: cddbd v1.4PL0 Copyright (c) Steve Scherf et al.
# Submitted via: ExactAudioCopy v0.90b4
#
DISCID=6f06280a
DTITLE=George Jones - I'm A One Woman Man
DYEAR=1900
DGENRE=Country
TTITLE0=I'm A One Woman Man
TTITLE1=You Gotta Be My Baby
TTITLE2=Come Sundown
TTITLE3=Fightin' Side Of Me
TTITLE4=Okie From Muskogee
TTITLE5=After You
TTITLE6=I'm Ragged But I'm Right
TTITLE7=Possum Holler
TTITLE8=The Honky Tonk Downstairs
TTITLE9=The Bridge Washed Out
EXTD=
EXTT0=
EXTT1=
EXTT2=
EXTT3=
EXTT4=
EXTT5=
EXTT6=
EXTT7=
EXTT8=
EXTT9=
PLAYORDER=
